<svg xmlns="http://www.w3.org/2000/svg" width="2106.758" height="2099.073" viewBox="0 0 2106.758 2099.073"><defs><style>.a{fill:#fff;}.b,.d{fill:#14e2a4;}.c{fill:#1469eb;}.d{stroke:#1ae5be;stroke-width:0.3px;}</style></defs><g transform="translate(-340.233 -202)"><rect class="a" width="81" height="81" rx="18" transform="translate(1994.349 2107.498) rotate(-125)"></rect><rect class="a" width="81" height="81" rx="18" transform="translate(2132.824 1998.365) rotate(-133)"></rect><g transform="translate(2161.408 1943.069) rotate(135)"><path class="b" d="M5.083,9.715a.807.807,0,0,1-.615-.284l-4.273-5A.809.809,0,1,1,1.425,3.376l3.76,4.4,9.339-7.6a.809.809,0,1,1,1.021,1.255l-9.953,8.1A.805.805,0,0,1,5.083,9.715Zm0,0" transform="translate(9.221 16.877)"></path><path class="c" d="M14.037,42.213l2.193.956a.808.808,0,0,0,.644,0L19.345,42.1A23.374,23.374,0,0,0,33.668,20.555V9.468a.809.809,0,0,0-.428-.714L16.99.1a.807.807,0,0,0-.769,0L.42,8.759a.809.809,0,0,0-.42.71V20.779A23.42,23.42,0,0,0,14.037,42.213ZM1.618,9.947l15-8.219L32.05,9.953v10.6A21.759,21.759,0,0,1,18.712,40.614l-.006,0-2.152.929-1.87-.816A21.8,21.8,0,0,1,1.618,20.779Zm0,0"></path></g><g transform="translate(2029.688 2058.349) rotate(145)"><path class="b" d="M10.207,20.934H10.1a10.018,10.018,0,0,1-7.192-3.149,10.655,10.655,0,0,1,.159-14.79A10.022,10.022,0,0,1,10.321,0a10.353,10.353,0,0,1,10.1,10.576,10.534,10.534,0,0,1-3.064,7.363,10.02,10.02,0,0,1-7.148,3Zm.005-19.7A8.8,8.8,0,0,0,3.939,3.864a9.422,9.422,0,0,0-.14,13.07,8.8,8.8,0,0,0,12.682.136,9.308,9.308,0,0,0,2.7-6.507,9.118,9.118,0,0,0-8.877-9.33h-.1Zm0,0" transform="translate(6.582 5.467)"></path><g transform="translate(0 0)"><path class="c" d="M4.859,28.967,16.279,41.13a.7.7,0,0,0,1.026,0L28.725,28.967a17.82,17.82,0,0,0,3.826-6.072,16.555,16.555,0,0,0,1-6.814A17.558,17.558,0,0,0,28.48,4.852a16.5,16.5,0,0,0-23.376,0A17.56,17.56,0,0,0,.034,16.081a16.555,16.555,0,0,0,1,6.814,17.828,17.828,0,0,0,3.826,6.072ZM1.438,16.175A16.152,16.152,0,0,1,6.1,5.846a15.1,15.1,0,0,1,21.382,0,16.15,16.15,0,0,1,4.663,10.329,15.151,15.151,0,0,1-.918,6.237A16.42,16.42,0,0,1,27.7,28L16.792,39.62,5.886,28a16.43,16.43,0,0,1-3.53-5.591,15.159,15.159,0,0,1-.918-6.238Zm0,0" transform="translate(0 0)"></path><path class="c" d="M.573,4.342H3.349V7.118a.573.573,0,1,0,1.145,0V4.342H7.118a.573.573,0,1,0,0-1.145H4.494V.573a.573.573,0,1,0-1.145,0V3.2H.573a.573.573,0,1,0,0,1.145Zm0,0" transform="translate(12.946 12.089)"></path></g></g><rect class="a" width="81" height="81" rx="18" transform="matrix(-0.956, -0.292, 0.292, -0.956, 1061.802, 2239.158)"></rect><rect class="a" width="81" height="81" rx="18" transform="matrix(-0.985, -0.174, 0.174, -0.985, 1231.609, 2280.641)"></rect><rect class="a" width="81" height="81" rx="18" transform="matrix(0.087, -0.996, 0.996, 0.087, 1322.558, 2294.013)"></rect><rect class="a" width="81" height="81" rx="18" transform="matrix(-0.602, -0.799, 0.799, -0.602, 638.336, 1983.852)"></rect><rect class="a" width="81" height="81" rx="18" transform="translate(769.509 2103.71) rotate(-144)"></rect><rect class="a" width="81" height="81" rx="18" transform="translate(913.087 2183.86) rotate(-153)"></rect><rect class="a" width="81" height="81" rx="18" transform="translate(1499.339 2293.866) rotate(-98)"></rect><rect class="a" width="81" height="81" rx="18" transform="matrix(-0.276, -0.961, 0.961, -0.276, 1672.267, 2259.495)"></rect><rect class="a" width="81" height="81" rx="18" transform="matrix(-0.545, -0.839, 0.839, -0.545, 1848.268, 2199.49)"></rect><g transform="translate(1388.942 2267.594) rotate(-175)"><path class="b" d="M.732,1.464H44.665a.732.732,0,1,0,0-1.464H.732a.732.732,0,1,0,0,1.464Zm0,0" transform="translate(0 0)"></path><path class="b" d="M9.181,0a4.769,4.769,0,0,0-2.2.534,4.787,4.787,0,1,0,0,8.507A4.787,4.787,0,1,0,9.181,0ZM1.465,4.788A3.323,3.323,0,1,1,4.788,8.111,3.322,3.322,0,0,1,1.465,4.788ZM9.181,8.111A3.323,3.323,0,0,1,8.337,8a4.787,4.787,0,0,0,0-6.425,3.322,3.322,0,1,1,.844,6.536Zm0,0" transform="translate(27.096 8.146)"></path></g><path class="c" d="M40.481,0H4.916A4.922,4.922,0,0,0,0,4.916v20.92a4.922,4.922,0,0,0,4.916,4.916H40.481A4.922,4.922,0,0,0,45.4,25.836V4.916A4.922,4.922,0,0,0,40.481,0Zm3.452,25.836a3.456,3.456,0,0,1-3.452,3.452H4.916a3.456,3.456,0,0,1-3.452-3.452V4.916A3.456,3.456,0,0,1,4.916,1.464H40.481a3.456,3.456,0,0,1,3.452,3.452Zm0,0" transform="translate(1388.199 2275.088) rotate(-175)"></path><path class="b" d="M7.408,12.741a.841.841,0,0,1-.6-.248L.248,5.932a.846.846,0,0,1,1.2-1.2l5.976,5.977L18.39.234a.846.846,0,0,1,1.168,1.223L7.992,12.506A.848.848,0,0,1,7.408,12.741Zm0,0" transform="translate(1045.61 2201.859) rotate(-163)"></path><path class="b" d="M10.6,35.447a1.336,1.336,0,0,1-1.133-.622l-.01-.017-3.8-6.3H.846a.846.846,0,0,1,0-1.692H6.129a.847.847,0,0,1,.724.408l3.747,6.2,3.747-6.2a.845.845,0,0,1,.724-.408H25.23a2.783,2.783,0,0,0,2.78-2.78V4.472a2.783,2.783,0,0,0-2.78-2.78H19.187a.846.846,0,0,1,0-1.692H25.23A4.477,4.477,0,0,1,29.7,4.472V24.04a4.477,4.477,0,0,1-4.472,4.472H15.547l-3.8,6.3-.01.017a1.337,1.337,0,0,1-1.133.621Zm0,0" transform="translate(1034.481 2199.713) rotate(-163)"></path><path class="c" d="M4.956,32.088H15.7l4.345,7.19.01.017a1.409,1.409,0,0,0,2.377,0l.01-.017,4.344-7.19H37.828a4.961,4.961,0,0,0,4.955-4.955V4.955A4.961,4.961,0,0,0,37.828,0H4.955A4.961,4.961,0,0,0,0,4.955V27.133a4.961,4.961,0,0,0,4.956,4.955ZM1.692,4.955A3.266,3.266,0,0,1,4.956,1.692H37.828a3.267,3.267,0,0,1,3.263,3.263V27.133A3.267,3.267,0,0,1,37.828,30.4H26.314a.846.846,0,0,0-.724.409l-4.342,7.186L16.906,30.8a.846.846,0,0,0-.724-.408H4.956a3.267,3.267,0,0,1-3.263-3.263Zm0,0" transform="translate(1053.885 2214.064) rotate(-163)"></path><path class="b" d="M13.3,14.723a.669.669,0,0,1-.669-.669V6.983a5.645,5.645,0,1,0-11.291,0v7.072a.669.669,0,1,1-1.337,0V6.983a6.983,6.983,0,1,1,13.965,0v7.072A.668.668,0,0,1,13.3,14.723Zm0,0" transform="translate(634.816 1955.597) rotate(-130)"></path><path class="b" d="M5.965,9.7A5.971,5.971,0,0,1,0,3.734V.669a.669.669,0,0,1,1.337,0V3.734a4.627,4.627,0,0,0,9.254,0V.669a.669.669,0,1,1,1.337,0V3.734A5.971,5.971,0,0,1,5.965,9.7Zm0,0" transform="translate(640.997 1930.377) rotate(-130)"></path><path class="c" d="M39.89,9.832V9.82A2.26,2.26,0,0,0,37.645,7.9H28.171l-.8-5.711V2.179A2.567,2.567,0,0,0,24.825,0H6.124A2.567,2.567,0,0,0,3.575,2.179v.012L.006,27.786A.591.591,0,0,0,0,27.878a4.5,4.5,0,0,0,4.49,4.49H16.841a3.88,3.88,0,0,0,3.748,2.9H39.016a3.878,3.878,0,0,0,3.874-3.873.639.639,0,0,0-.007-.093ZM16.76,31.03H4.49a3.156,3.156,0,0,1-3.152-3.108L4.9,2.382A1.235,1.235,0,0,1,6.124,1.337h18.7a1.235,1.235,0,0,1,1.226,1.044l.769,5.52H21.96A2.26,2.26,0,0,0,19.717,9.82v.012Zm22.256,2.9H20.59a2.539,2.539,0,0,1-2.536-2.492l2.984-21.412a.929.929,0,0,1,.922-.784H37.645a.929.929,0,0,1,.922.784l2.985,21.412a2.539,2.539,0,0,1-2.536,2.492Zm0,0" transform="translate(647.336 1956.177) rotate(-130)"></path><path class="b" d="M31.966,1.841a.856.856,0,0,0-.814-.064L16.221,8.412,1.272.108A.856.856,0,0,0,.44,1.6L15.322,9.872v32.09L1.272,34.156a.856.856,0,0,0-.832,1.5l15.322,8.512c.011.006.023.011.034.016a.5.5,0,0,0,.045.021c.021.009.043.017.064.024s.029.011.044.014.048.011.072.016l.042.008a.838.838,0,0,0,.092.006l.022,0a.945.945,0,0,0,.1-.007l.023,0a.768.768,0,0,0,.079-.016l.03-.008q.037-.011.073-.024l.028-.011.01,0,15.322-6.81a.857.857,0,0,0,.508-.783V2.559a.856.856,0,0,0-.39-.718Zm-1.322,34.21L17.034,42.1V9.925l13.61-6.049Zm0,0" transform="translate(1879.152 2157.906) rotate(148)"></path><path class="c" d="M17.034,34.905V.857a.856.856,0,0,0-1.2-.783L.508,6.884A.856.856,0,0,0,0,7.667V41.715a.856.856,0,0,0,1.2.783l15.322-6.81a.857.857,0,0,0,.509-.783Zm-1.712-.557L1.712,40.4V8.223l13.61-6.049Zm0,0" transform="translate(1892.145 2149.787) rotate(148)"></path><path class="b" d="M5.083,9.715a.807.807,0,0,1-.615-.284l-4.273-5A.809.809,0,1,1,1.425,3.376l3.76,4.4,9.339-7.6a.809.809,0,1,1,1.021,1.255l-9.953,8.1A.805.805,0,0,1,5.083,9.715Zm0,0" transform="translate(1708.854 2210) rotate(162)"></path><path class="c" d="M14.037,42.213l2.193.956a.808.808,0,0,0,.644,0L19.345,42.1A23.374,23.374,0,0,0,33.668,20.555V9.468a.809.809,0,0,0-.428-.714L16.99.1a.807.807,0,0,0-.769,0L.42,8.759a.809.809,0,0,0-.42.71V20.779A23.42,23.42,0,0,0,14.037,42.213ZM1.618,9.947l15-8.219L32.05,9.953v10.6A21.759,21.759,0,0,1,18.712,40.614l-.006,0-2.152.929-1.87-.816A21.8,21.8,0,0,1,1.618,20.779Zm0,0" transform="translate(1722.839 2223.201) rotate(162)"></path><path class="b" d="M23.417,15.41A.79.79,0,0,1,23,15.293L.387,1.472A.792.792,0,1,1,1.212.121l22.2,13.569L45.621.121a.792.792,0,1,1,.825,1.351L23.829,15.293a.79.79,0,0,1-.413.116Zm0,0" transform="matrix(-0.891, -0.454, 0.454, -0.891, 909.745, 2151.241)"></path><path class="c" d="M42.117,0H4.7A4.705,4.705,0,0,0,0,4.7V28.434a4.705,4.705,0,0,0,4.7,4.7H42.117a4.706,4.706,0,0,0,4.7-4.7V4.7a4.706,4.706,0,0,0-4.7-4.7Zm3.117,28.434a3.121,3.121,0,0,1-3.117,3.116H4.7a3.121,3.121,0,0,1-3.117-3.116V4.7A3.12,3.12,0,0,1,4.7,1.583H42.117A3.12,3.12,0,0,1,45.234,4.7Zm0,0" transform="matrix(-0.891, -0.454, 0.454, -0.891, 907.966, 2154.715)"></path><path class="b" d="M10.207,20.934H10.1a10.018,10.018,0,0,1-7.192-3.149,10.655,10.655,0,0,1,.159-14.79A10.022,10.022,0,0,1,10.321,0a10.353,10.353,0,0,1,10.1,10.576,10.534,10.534,0,0,1-3.064,7.363,10.02,10.02,0,0,1-7.148,3Zm.005-19.7A8.8,8.8,0,0,0,3.939,3.864a9.422,9.422,0,0,0-.14,13.07,8.8,8.8,0,0,0,12.682.136,9.308,9.308,0,0,0,2.7-6.507,9.118,9.118,0,0,0-8.877-9.33h-.1Zm0,0" transform="translate(1545.86 2261.62) rotate(172)"></path><g transform="translate(1553.14 2266.118) rotate(172)"><path class="c" d="M4.859,28.967,16.279,41.13a.7.7,0,0,0,1.026,0L28.725,28.967a17.82,17.82,0,0,0,3.826-6.072,16.555,16.555,0,0,0,1-6.814A17.558,17.558,0,0,0,28.48,4.852a16.5,16.5,0,0,0-23.376,0A17.56,17.56,0,0,0,.034,16.081a16.555,16.555,0,0,0,1,6.814,17.828,17.828,0,0,0,3.826,6.072ZM1.438,16.175A16.152,16.152,0,0,1,6.1,5.846a15.1,15.1,0,0,1,21.382,0,16.15,16.15,0,0,1,4.663,10.329,15.151,15.151,0,0,1-.918,6.237A16.42,16.42,0,0,1,27.7,28L16.792,39.62,5.886,28a16.43,16.43,0,0,1-3.53-5.591,15.159,15.159,0,0,1-.918-6.238Zm0,0" transform="translate(0 0)"></path><path class="c" d="M.573,4.342H3.349V7.118a.573.573,0,1,0,1.145,0V4.342H7.118a.573.573,0,1,0,0-1.145H4.494V.573a.573.573,0,1,0-1.145,0V3.2H.573a.573.573,0,1,0,0,1.145Zm0,0" transform="translate(12.946 12.089)"></path></g><path class="c" d="M42.122,15.5l-4.231-3.08V5.243a.617.617,0,0,0-.617-.617H32.931a.617.617,0,0,0-.617.617V8.364L21.55.528a.617.617,0,0,0-.726,0L.253,15.5a.617.617,0,0,0,.363,1.116H6.024V40.3a.617.617,0,0,0,.617.617l23.5,0a.617.617,0,1,0,0-1.234l-22.885,0V16a.617.617,0,0,0-.617-.617H2.512l18.675-13.6,18.749,13.65-4.222.127a.616.616,0,0,0-.6.617v5.652a.617.617,0,1,0,1.234,0V16.783l5.426-.163a.617.617,0,0,0,.345-1.116ZM33.548,5.86h3.109v5.666L33.548,9.263Zm0,0" transform="matrix(-0.985, -0.174, 0.174, -0.985, 1217.562, 2259.195)"></path><g transform="matrix(-0.985, -0.174, 0.174, -0.985, 1194.65, 2233.262)"><path class="b" d="M82.537,151.187a.428.428,0,0,1-.326-.15l-2.267-2.654a.429.429,0,1,1,.653-.557l1.994,2.335,4.953-4.03a.429.429,0,0,1,.542.666l-5.279,4.294A.427.427,0,0,1,82.537,151.187Zm0,0" transform="translate(-74.951 -137.083)"></path><path class="d" d="M7.5,22.389l1.163.507a.429.429,0,0,0,.341,0l1.311-.566a12.4,12.4,0,0,0,7.6-11.428V5.022a.429.429,0,0,0-.227-.379L9.066.051a.428.428,0,0,0-.408,0L.278,4.646a.429.429,0,0,0-.223.376v6A12.421,12.421,0,0,0,7.5,22.389ZM.914,5.276,8.867.917l8.187,4.362V10.9A11.54,11.54,0,0,1,9.98,21.541h0l-1.141.493L7.844,21.6A11.562,11.562,0,0,1,.913,11.021Zm0,0" transform="translate(-0.056 0)"></path></g><path class="b" d="M47.518,23.918H17.987a3.791,3.791,0,0,0-2-7.047,3.87,3.87,0,0,0-3.229,1.73V.744a.744.744,0,1,0-1.488,0V18.6A3.83,3.83,0,0,0,9.982,17.39a3.886,3.886,0,0,0-1.942-.519,3.791,3.791,0,0,0-2,7.047H.744a.744.744,0,1,0,0,1.488h9.472L6.7,28.92a.744.744,0,1,0,1.052,1.052l3.513-3.513v9.578a.744.744,0,0,0,1.488,0V26.459l4.736,4.736a.744.744,0,1,0,1.052-1.052l-4.736-4.736H47.518a.744.744,0,0,0,0-1.488ZM7.595,22.943a2.309,2.309,0,0,1,.445-4.584,2.4,2.4,0,0,1,1.2.319,2.316,2.316,0,0,1,1.123,1.562l.649,3.343Zm8.835,0-3.415.641.648-3.343a2.368,2.368,0,0,1,4.685.431,2.329,2.329,0,0,1-1.918,2.271Zm0,0" transform="matrix(-0.799, -0.602, 0.602, -0.799, 768.101, 2076.046)"></path><path class="c" d="M43.266,0H5A5,5,0,0,0,0,5V31.732a5,5,0,0,0,5,5h38.27a5,5,0,0,0,5-5V5A5,5,0,0,0,43.266,0Zm3.508,31.732a3.512,3.512,0,0,1-3.508,3.508H5a3.512,3.512,0,0,1-3.508-3.508V5A3.512,3.512,0,0,1,5,1.488h38.27A3.512,3.512,0,0,1,46.774,5Zm0,0" transform="matrix(-0.799, -0.602, 0.602, -0.799, 768.133, 2076.003)"></path><rect class="a" width="81" height="81" rx="18" transform="translate(367.532 1018.951) rotate(-79)"></rect><rect class="a" width="81" height="81" rx="18" transform="translate(344.026 1192.164) rotate(-86)"></rect><rect class="a" width="81" height="81" rx="18" transform="matrix(1, -0.017, 0.017, 1, 340.234, 1284.013)"></rect><rect class="a" width="81" height="81" rx="18" transform="translate(577.175 571.118) rotate(-43)"></rect><rect class="a" width="81" height="81" rx="18" transform="matrix(0.5, -0.866, 0.866, 0.5, 471.685, 714.101)"></rect><rect class="a" width="81" height="81" rx="18" transform="matrix(0.358, -0.934, 0.934, 0.358, 406.982, 865.271)"></rect><rect class="a" width="81" height="81" rx="18" transform="translate(358.859 1459.81) rotate(-14)"></rect><rect class="a" width="81" height="81" rx="18" transform="translate(411.118 1628.197) rotate(-22)"></rect><rect class="a" width="81" height="81" rx="18" transform="translate(489.191 1796.962) rotate(-39)"></rect><g transform="translate(365.918 1347.403) rotate(-91)"><g transform="translate(0 7.53)"><path class="b" d="M.732,1.464H44.665a.732.732,0,1,0,0-1.464H.732a.732.732,0,1,0,0,1.464Zm0,0" transform="translate(0 0)"></path><path class="b" d="M9.181,0a4.769,4.769,0,0,0-2.2.534,4.787,4.787,0,1,0,0,8.507A4.787,4.787,0,1,0,9.181,0ZM1.465,4.788A3.323,3.323,0,1,1,4.788,8.111,3.322,3.322,0,0,1,1.465,4.788ZM9.181,8.111A3.323,3.323,0,0,1,8.337,8a4.787,4.787,0,0,0,0-6.425,3.322,3.322,0,1,1,.844,6.536Zm0,0" transform="translate(27.096 8.146)"></path></g><path class="c" d="M40.481,0H4.916A4.922,4.922,0,0,0,0,4.916v20.92a4.922,4.922,0,0,0,4.916,4.916H40.481A4.922,4.922,0,0,0,45.4,25.836V4.916A4.922,4.922,0,0,0,40.481,0Zm3.452,25.836a3.456,3.456,0,0,1-3.452,3.452H4.916a3.456,3.456,0,0,1-3.452-3.452V4.916A3.456,3.456,0,0,1,4.916,1.464H40.481a3.456,3.456,0,0,1,3.452,3.452Zm0,0" transform="translate(0.087 0)"></path></g><g transform="translate(391.661 1008.454) rotate(-79)"><path class="b" d="M7.408,12.741a.841.841,0,0,1-.6-.248L.248,5.932a.846.846,0,0,1,1.2-1.2l5.976,5.977L18.39.234a.846.846,0,0,1,1.168,1.223L7.992,12.506A.848.848,0,0,1,7.408,12.741Zm0,0" transform="translate(11.481 9.252)"></path><path class="b" d="M10.6,35.447a1.336,1.336,0,0,1-1.133-.622l-.01-.017-3.8-6.3H.846a.846.846,0,0,1,0-1.692H6.129a.847.847,0,0,1,.724.408l3.747,6.2,3.747-6.2a.845.845,0,0,1,.724-.408H25.23a2.783,2.783,0,0,0,2.78-2.78V4.472a2.783,2.783,0,0,0-2.78-2.78H19.187a.846.846,0,0,1,0-1.692H25.23A4.477,4.477,0,0,1,29.7,4.472V24.04a4.477,4.477,0,0,1-4.472,4.472H15.547l-3.8,6.3-.01.017a1.337,1.337,0,0,1-1.133.621Zm0,0" transform="translate(22.752 8.051)"></path><path class="c" d="M4.956,32.088H15.7l4.345,7.19.01.017a1.409,1.409,0,0,0,2.377,0l.01-.017,4.344-7.19H37.828a4.961,4.961,0,0,0,4.955-4.955V4.955A4.961,4.961,0,0,0,37.828,0H4.955A4.961,4.961,0,0,0,0,4.955V27.133a4.961,4.961,0,0,0,4.956,4.955ZM1.692,4.955A3.266,3.266,0,0,1,4.956,1.692H37.828a3.267,3.267,0,0,1,3.263,3.263V27.133A3.267,3.267,0,0,1,37.828,30.4H26.314a.846.846,0,0,0-.724.409l-4.342,7.186L16.906,30.8a.846.846,0,0,0-.724-.408H4.956a3.267,3.267,0,0,1-3.263-3.263Zm0,0" transform="translate(0 0)"></path></g><g transform="matrix(0.695, -0.719, 0.719, 0.695, 599.008, 570.773)"><path class="b" d="M13.3,14.723a.669.669,0,0,1-.669-.669V6.983a5.645,5.645,0,1,0-11.291,0v7.072a.669.669,0,1,1-1.337,0V6.983a6.983,6.983,0,1,1,13.965,0v7.072A.668.668,0,0,1,13.3,14.723Zm0,0" transform="translate(8.492 0)"></path><path class="b" d="M5.965,9.7A5.971,5.971,0,0,1,0,3.734V.669a.669.669,0,0,1,1.337,0V3.734a4.627,4.627,0,0,0,9.254,0V.669a.669.669,0,1,1,1.337,0V3.734A5.971,5.971,0,0,1,5.965,9.7Zm0,0" transform="translate(23.838 20.946)"></path><path class="c" d="M39.89,9.832V9.82A2.26,2.26,0,0,0,37.645,7.9H28.171l-.8-5.711V2.179A2.567,2.567,0,0,0,24.825,0H6.124A2.567,2.567,0,0,0,3.575,2.179v.012L.006,27.786A.591.591,0,0,0,0,27.878a4.5,4.5,0,0,0,4.49,4.49H16.841a3.88,3.88,0,0,0,3.748,2.9H39.016a3.878,3.878,0,0,0,3.874-3.873.639.639,0,0,0-.007-.093ZM16.76,31.03H4.49a3.156,3.156,0,0,1-3.152-3.108L4.9,2.382A1.235,1.235,0,0,1,6.124,1.337h18.7a1.235,1.235,0,0,1,1.226,1.044l.769,5.52H21.96A2.26,2.26,0,0,0,19.717,9.82v.012Zm22.256,2.9H20.59a2.539,2.539,0,0,1-2.536-2.492l2.984-21.412a.929.929,0,0,1,.922-.784H37.645a.929.929,0,0,1,.922.784l2.985,21.412a2.539,2.539,0,0,1-2.536,2.492Zm0,0" transform="translate(0 9.218)"></path></g><g transform="matrix(-0.616, -0.788, 0.788, -0.616, 543.208, 1835.404)"><path class="b" d="M31.966,1.841a.856.856,0,0,0-.814-.064L16.221,8.412,1.272.108A.856.856,0,0,0,.44,1.6L15.322,9.872v32.09L1.272,34.156a.856.856,0,0,0-.832,1.5l15.322,8.512c.011.006.023.011.034.016a.5.5,0,0,0,.045.021c.021.009.043.017.064.024s.029.011.044.014.048.011.072.016l.042.008a.838.838,0,0,0,.092.006l.022,0a.945.945,0,0,0,.1-.007l.023,0a.768.768,0,0,0,.079-.016l.03-.008q.037-.011.073-.024l.028-.011.01,0,15.322-6.81a.857.857,0,0,0,.508-.783V2.559a.856.856,0,0,0-.39-.718Zm-1.322,34.21L17.034,42.1V9.925l13.61-6.049Zm0,0" transform="translate(15.321 0)"></path><path class="c" d="M17.034,34.905V.857a.856.856,0,0,0-1.2-.783L.508,6.884A.856.856,0,0,0,0,7.667V41.715a.856.856,0,0,0,1.2.783l15.322-6.81a.857.857,0,0,0,.509-.783Zm-1.712-.557L1.712,40.4V8.223l13.61-6.049Zm0,0" transform="translate(0 0)"></path></g><g transform="translate(452.498 1674.699) rotate(-114)"><path class="b" d="M5.083,9.715a.807.807,0,0,1-.615-.284l-4.273-5A.809.809,0,1,1,1.425,3.376l3.76,4.4,9.339-7.6a.809.809,0,1,1,1.021,1.255l-9.953,8.1A.805.805,0,0,1,5.083,9.715Zm0,0" transform="translate(9.221 16.877)"></path><path class="c" d="M14.037,42.213l2.193.956a.808.808,0,0,0,.644,0L19.345,42.1A23.374,23.374,0,0,0,33.668,20.555V9.468a.809.809,0,0,0-.428-.714L16.99.1a.807.807,0,0,0-.769,0L.42,8.759a.809.809,0,0,0-.42.71V20.779A23.42,23.42,0,0,0,14.037,42.213ZM1.618,9.947l15-8.219L32.05,9.953v10.6A21.759,21.759,0,0,1,18.712,40.614l-.006,0-2.152.929-1.87-.816A21.8,21.8,0,0,1,1.618,20.779Zm0,0"></path></g><g transform="translate(435.429 857.138) rotate(-69)"><path class="b" d="M23.417,15.41A.79.79,0,0,1,23,15.293L.387,1.472A.792.792,0,1,1,1.212.121l22.2,13.569L45.621.121a.792.792,0,1,1,.825,1.351L23.829,15.293a.79.79,0,0,1-.413.116Zm0,0" transform="translate(0 3.903)"></path><path class="c" d="M42.117,0H4.7A4.705,4.705,0,0,0,0,4.7V28.434a4.705,4.705,0,0,0,4.7,4.7H42.117a4.706,4.706,0,0,0,4.7-4.7V4.7a4.706,4.706,0,0,0-4.7-4.7Zm3.117,28.434a3.121,3.121,0,0,1-3.117,3.116H4.7a3.121,3.121,0,0,1-3.117-3.116V4.7A3.12,3.12,0,0,1,4.7,1.583H42.117A3.12,3.12,0,0,1,45.234,4.7Zm0,0" transform="translate(0.008 0)"></path></g><g transform="translate(392.078 1510.415) rotate(-104)"><path class="b" d="M10.207,20.934H10.1a10.018,10.018,0,0,1-7.192-3.149,10.655,10.655,0,0,1,.159-14.79A10.022,10.022,0,0,1,10.321,0a10.353,10.353,0,0,1,10.1,10.576,10.534,10.534,0,0,1-3.064,7.363,10.02,10.02,0,0,1-7.148,3Zm.005-19.7A8.8,8.8,0,0,0,3.939,3.864a9.422,9.422,0,0,0-.14,13.07,8.8,8.8,0,0,0,12.682.136,9.308,9.308,0,0,0,2.7-6.507,9.118,9.118,0,0,0-8.877-9.33h-.1Zm0,0" transform="translate(6.582 5.467)"></path><g transform="translate(0 0)"><path class="c" d="M4.859,28.967,16.279,41.13a.7.7,0,0,0,1.026,0L28.725,28.967a17.82,17.82,0,0,0,3.826-6.072,16.555,16.555,0,0,0,1-6.814A17.558,17.558,0,0,0,28.48,4.852a16.5,16.5,0,0,0-23.376,0A17.56,17.56,0,0,0,.034,16.081a16.555,16.555,0,0,0,1,6.814,17.828,17.828,0,0,0,3.826,6.072ZM1.438,16.175A16.152,16.152,0,0,1,6.1,5.846a15.1,15.1,0,0,1,21.382,0,16.15,16.15,0,0,1,4.663,10.329,15.151,15.151,0,0,1-.918,6.237A16.42,16.42,0,0,1,27.7,28L16.792,39.62,5.886,28a16.43,16.43,0,0,1-3.53-5.591,15.159,15.159,0,0,1-.918-6.238Zm0,0" transform="translate(0 0)"></path><path class="c" d="M.573,4.342H3.349V7.118a.573.573,0,1,0,1.145,0V4.342H7.118a.573.573,0,1,0,0-1.145H4.494V.573a.573.573,0,1,0-1.145,0V3.2H.573a.573.573,0,1,0,0,1.145Zm0,0" transform="translate(12.946 12.089)"></path></g></g><g transform="translate(364.295 1175.981) rotate(-86)"><path class="c" d="M42.122,15.5l-4.231-3.08V5.243a.617.617,0,0,0-.617-.617H32.931a.617.617,0,0,0-.617.617V8.364L21.55.528a.617.617,0,0,0-.726,0L.253,15.5a.617.617,0,0,0,.363,1.116H6.024V40.3a.617.617,0,0,0,.617.617l23.5,0a.617.617,0,1,0,0-1.234l-22.885,0V16a.617.617,0,0,0-.617-.617H2.512l18.675-13.6,18.749,13.65-4.222.127a.616.616,0,0,0-.6.617v5.652a.617.617,0,1,0,1.234,0V16.783l5.426-.163a.617.617,0,0,0,.345-1.116ZM33.548,5.86h3.109v5.666L33.548,9.263Zm0,0" transform="translate(0.001 -0.41)"></path><g transform="translate(27.068 21.15)"><path class="b" d="M82.537,151.187a.428.428,0,0,1-.326-.15l-2.267-2.654a.429.429,0,1,1,.653-.557l1.994,2.335,4.953-4.03a.429.429,0,0,1,.542.666l-5.279,4.294A.427.427,0,0,1,82.537,151.187Zm0,0" transform="translate(-74.951 -137.083)"></path><path class="d" d="M7.5,22.389l1.163.507a.429.429,0,0,0,.341,0l1.311-.566a12.4,12.4,0,0,0,7.6-11.428V5.022a.429.429,0,0,0-.227-.379L9.066.051a.428.428,0,0,0-.408,0L.278,4.646a.429.429,0,0,0-.223.376v6A12.421,12.421,0,0,0,7.5,22.389ZM.914,5.276,8.867.917l8.187,4.362V10.9A11.54,11.54,0,0,1,9.98,21.541h0l-1.141.493L7.844,21.6A11.562,11.562,0,0,1,.913,11.021Zm0,0" transform="translate(-0.056 0)"></path></g></g><g transform="translate(499.05 709.809) rotate(-59)"><path class="b" d="M47.518,23.918H17.987a3.791,3.791,0,0,0-2-7.047,3.87,3.87,0,0,0-3.229,1.73V.744a.744.744,0,1,0-1.488,0V18.6A3.83,3.83,0,0,0,9.982,17.39a3.886,3.886,0,0,0-1.942-.519,3.791,3.791,0,0,0-2,7.047H.744a.744.744,0,1,0,0,1.488h9.472L6.7,28.92a.744.744,0,1,0,1.052,1.052l3.513-3.513v9.578a.744.744,0,0,0,1.488,0V26.459l4.736,4.736a.744.744,0,1,0,1.052-1.052l-4.736-4.736H47.518a.744.744,0,0,0,0-1.488ZM7.595,22.943a2.309,2.309,0,0,1,.445-4.584,2.4,2.4,0,0,1,1.2.319,2.316,2.316,0,0,1,1.123,1.562l.649,3.343Zm8.835,0-3.415.641.648-3.343a2.368,2.368,0,0,1,4.685.431,2.329,2.329,0,0,1-1.918,2.271Zm0,0" transform="translate(0 0)"></path><path class="c" d="M43.266,0H5A5,5,0,0,0,0,5V31.732a5,5,0,0,0,5,5h38.27a5,5,0,0,0,5-5V5A5,5,0,0,0,43.266,0Zm3.508,31.732a3.512,3.512,0,0,1-3.508,3.508H5a3.512,3.512,0,0,1-3.508-3.508V5A3.512,3.512,0,0,1,5,1.488h38.27A3.512,3.512,0,0,1,46.774,5Zm0,0" transform="translate(0 0.053)"></path></g><rect class="a" width="81" height="81" rx="18" transform="translate(1545.844 213.366) rotate(7)"></rect><rect class="a" width="81" height="81" rx="18" transform="translate(1371.414 202)"></rect><rect class="a" width="81" height="81" rx="18" transform="translate(1279.524 204.624) rotate(85)"></rect><rect class="a" width="81" height="81" rx="18" transform="translate(2007.21 391.259) rotate(43)"></rect><rect class="a" width="81" height="81" rx="18" transform="matrix(0.899, 0.438, -0.438, 0.899, 1857.217, 296)"></rect><rect class="a" width="81" height="81" rx="18" transform="translate(1701.902 242) rotate(17)"></rect><rect class="a" width="81" height="81" rx="18" transform="translate(1105.455 235.467) rotate(72)"></rect><rect class="a" width="81" height="81" rx="18" transform="translate(941.122 299.345) rotate(64)"></rect><rect class="a" width="81" height="81" rx="18" transform="translate(778.215 389) rotate(47)"></rect><g transform="matrix(0.996, -0.087, 0.087, 0.996, 1218.08, 234.668)"><g transform="translate(0 7.53)"><path class="b" d="M.732,1.464H44.665a.732.732,0,1,0,0-1.464H.732a.732.732,0,1,0,0,1.464Zm0,0" transform="translate(0 0)"></path><path class="b" d="M9.181,0a4.769,4.769,0,0,0-2.2.534,4.787,4.787,0,1,0,0,8.507A4.787,4.787,0,1,0,9.181,0ZM1.465,4.788A3.323,3.323,0,1,1,4.788,8.111,3.322,3.322,0,0,1,1.465,4.788ZM9.181,8.111A3.323,3.323,0,0,1,8.337,8a4.787,4.787,0,0,0,0-6.425,3.322,3.322,0,1,1,.844,6.536Zm0,0" transform="translate(27.096 8.146)"></path></g><path class="c" d="M40.481,0H4.916A4.922,4.922,0,0,0,0,4.916v20.92a4.922,4.922,0,0,0,4.916,4.916H40.481A4.922,4.922,0,0,0,45.4,25.836V4.916A4.922,4.922,0,0,0,40.481,0Zm3.452,25.836a3.456,3.456,0,0,1-3.452,3.452H4.916a3.456,3.456,0,0,1-3.452-3.452V4.916A3.456,3.456,0,0,1,4.916,1.464H40.481a3.456,3.456,0,0,1,3.452,3.452Zm0,0" transform="translate(0.087 0)"></path></g><g transform="translate(1557.999 236.704) rotate(7)"><path class="b" d="M7.408,12.741a.841.841,0,0,1-.6-.248L.248,5.932a.846.846,0,0,1,1.2-1.2l5.976,5.977L18.39.234a.846.846,0,0,1,1.168,1.223L7.992,12.506A.848.848,0,0,1,7.408,12.741Zm0,0" transform="translate(11.481 9.252)"></path><path class="b" d="M10.6,35.447a1.336,1.336,0,0,1-1.133-.622l-.01-.017-3.8-6.3H.846a.846.846,0,0,1,0-1.692H6.129a.847.847,0,0,1,.724.408l3.747,6.2,3.747-6.2a.845.845,0,0,1,.724-.408H25.23a2.783,2.783,0,0,0,2.78-2.78V4.472a2.783,2.783,0,0,0-2.78-2.78H19.187a.846.846,0,0,1,0-1.692H25.23A4.477,4.477,0,0,1,29.7,4.472V24.04a4.477,4.477,0,0,1-4.472,4.472H15.547l-3.8,6.3-.01.017a1.337,1.337,0,0,1-1.133.621Zm0,0" transform="translate(22.752 8.051)"></path><path class="c" d="M4.956,32.088H15.7l4.345,7.19.01.017a1.409,1.409,0,0,0,2.377,0l.01-.017,4.344-7.19H37.828a4.961,4.961,0,0,0,4.955-4.955V4.955A4.961,4.961,0,0,0,37.828,0H4.955A4.961,4.961,0,0,0,0,4.955V27.133a4.961,4.961,0,0,0,4.956,4.955ZM1.692,4.955A3.266,3.266,0,0,1,4.956,1.692H37.828a3.267,3.267,0,0,1,3.263,3.263V27.133A3.267,3.267,0,0,1,37.828,30.4H26.314a.846.846,0,0,0-.724.409l-4.342,7.186L16.906,30.8a.846.846,0,0,0-.724-.408H4.956a3.267,3.267,0,0,1-3.263-3.263Zm0,0" transform="translate(0 0)"></path></g><g transform="matrix(0.766, 0.643, -0.643, 0.766, 2009.078, 413.016)"><path class="b" d="M13.3,14.723a.669.669,0,0,1-.669-.669V6.983a5.645,5.645,0,1,0-11.291,0v7.072a.669.669,0,1,1-1.337,0V6.983a6.983,6.983,0,1,1,13.965,0v7.072A.668.668,0,0,1,13.3,14.723Zm0,0" transform="translate(8.492 0)"></path><path class="b" d="M5.965,9.7A5.971,5.971,0,0,1,0,3.734V.669a.669.669,0,0,1,1.337,0V3.734a4.627,4.627,0,0,0,9.254,0V.669a.669.669,0,1,1,1.337,0V3.734A5.971,5.971,0,0,1,5.965,9.7Zm0,0" transform="translate(23.838 20.946)"></path><path class="c" d="M39.89,9.832V9.82A2.26,2.26,0,0,0,37.645,7.9H28.171l-.8-5.711V2.179A2.567,2.567,0,0,0,24.825,0H6.124A2.567,2.567,0,0,0,3.575,2.179v.012L.006,27.786A.591.591,0,0,0,0,27.878a4.5,4.5,0,0,0,4.49,4.49H16.841a3.88,3.88,0,0,0,3.748,2.9H39.016a3.878,3.878,0,0,0,3.874-3.873.639.639,0,0,0-.007-.093ZM16.76,31.03H4.49a3.156,3.156,0,0,1-3.152-3.108L4.9,2.382A1.235,1.235,0,0,1,6.124,1.337h18.7a1.235,1.235,0,0,1,1.226,1.044l.769,5.52H21.96A2.26,2.26,0,0,0,19.717,9.82v.012Zm22.256,2.9H20.59a2.539,2.539,0,0,1-2.536-2.492l2.984-21.412a.929.929,0,0,1,.922-.784H37.645a.929.929,0,0,1,.922.784l2.985,21.412a2.539,2.539,0,0,1-2.536,2.492Zm0,0" transform="translate(0 9.218)"></path></g><g transform="translate(743.635 445.567) rotate(-42)"><path class="b" d="M31.966,1.841a.856.856,0,0,0-.814-.064L16.221,8.412,1.272.108A.856.856,0,0,0,.44,1.6L15.322,9.872v32.09L1.272,34.156a.856.856,0,0,0-.832,1.5l15.322,8.512c.011.006.023.011.034.016a.5.5,0,0,0,.045.021c.021.009.043.017.064.024s.029.011.044.014.048.011.072.016l.042.008a.838.838,0,0,0,.092.006l.022,0a.945.945,0,0,0,.1-.007l.023,0a.768.768,0,0,0,.079-.016l.03-.008q.037-.011.073-.024l.028-.011.01,0,15.322-6.81a.857.857,0,0,0,.508-.783V2.559a.856.856,0,0,0-.39-.718Zm-1.322,34.21L17.034,42.1V9.925l13.61-6.049Zm0,0" transform="translate(15.321 0)"></path><path class="c" d="M17.034,34.905V.857a.856.856,0,0,0-1.2-.783L.508,6.884A.856.856,0,0,0,0,7.667V41.715a.856.856,0,0,0,1.2.783l15.322-6.81a.857.857,0,0,0,.509-.783Zm-1.712-.557L1.712,40.4V8.223l13.61-6.049Zm0,0" transform="translate(0 0)"></path></g><g transform="translate(897.621 343.868) rotate(-28)"><path class="b" d="M5.083,9.715a.807.807,0,0,1-.615-.284l-4.273-5A.809.809,0,1,1,1.425,3.376l3.76,4.4,9.339-7.6a.809.809,0,1,1,1.021,1.255l-9.953,8.1A.805.805,0,0,1,5.083,9.715Zm0,0" transform="translate(9.221 16.877)"></path><path class="c" d="M14.037,42.213l2.193.956a.808.808,0,0,0,.644,0L19.345,42.1A23.374,23.374,0,0,0,33.668,20.555V9.468a.809.809,0,0,0-.428-.714L16.99.1a.807.807,0,0,0-.769,0L.42,8.759a.809.809,0,0,0-.42.71V20.779A23.42,23.42,0,0,0,14.037,42.213ZM1.618,9.947l15-8.219L32.05,9.953v10.6A21.759,21.759,0,0,1,18.712,40.614l-.006,0-2.152.929-1.87-.816A21.8,21.8,0,0,1,1.618,20.779Zm0,0"></path></g><g transform="translate(1711.999 269.811) rotate(17)"><path class="b" d="M23.417,15.41A.79.79,0,0,1,23,15.293L.387,1.472A.792.792,0,1,1,1.212.121l22.2,13.569L45.621.121a.792.792,0,1,1,.825,1.351L23.829,15.293a.79.79,0,0,1-.413.116Zm0,0" transform="translate(0 3.903)"></path><path class="c" d="M42.117,0H4.7A4.705,4.705,0,0,0,0,4.7V28.434a4.705,4.705,0,0,0,4.7,4.7H42.117a4.706,4.706,0,0,0,4.7-4.7V4.7a4.706,4.706,0,0,0-4.7-4.7Zm3.117,28.434a3.121,3.121,0,0,1-3.117,3.116H4.7a3.121,3.121,0,0,1-3.117-3.116V4.7A3.12,3.12,0,0,1,4.7,1.583H42.117A3.12,3.12,0,0,1,45.234,4.7Zm0,0" transform="translate(0.008 0)"></path></g><g transform="translate(1057.29 272.136) rotate(-18)"><path class="b" d="M10.207,20.934H10.1a10.018,10.018,0,0,1-7.192-3.149,10.655,10.655,0,0,1,.159-14.79A10.022,10.022,0,0,1,10.321,0a10.353,10.353,0,0,1,10.1,10.576,10.534,10.534,0,0,1-3.064,7.363,10.02,10.02,0,0,1-7.148,3Zm.005-19.7A8.8,8.8,0,0,0,3.939,3.864a9.422,9.422,0,0,0-.14,13.07,8.8,8.8,0,0,0,12.682.136,9.308,9.308,0,0,0,2.7-6.507,9.118,9.118,0,0,0-8.877-9.33h-.1Zm0,0" transform="translate(6.582 5.467)"></path><g transform="translate(0 0)"><path class="c" d="M4.859,28.967,16.279,41.13a.7.7,0,0,0,1.026,0L28.725,28.967a17.82,17.82,0,0,0,3.826-6.072,16.555,16.555,0,0,0,1-6.814A17.558,17.558,0,0,0,28.48,4.852a16.5,16.5,0,0,0-23.376,0A17.56,17.56,0,0,0,.034,16.081a16.555,16.555,0,0,0,1,6.814,17.828,17.828,0,0,0,3.826,6.072ZM1.438,16.175A16.152,16.152,0,0,1,6.1,5.846a15.1,15.1,0,0,1,21.382,0,16.15,16.15,0,0,1,4.663,10.329,15.151,15.151,0,0,1-.918,6.237A16.42,16.42,0,0,1,27.7,28L16.792,39.62,5.886,28a16.43,16.43,0,0,1-3.53-5.591,15.159,15.159,0,0,1-.918-6.238Zm0,0" transform="translate(0 0)"></path><path class="c" d="M.573,4.342H3.349V7.118a.573.573,0,1,0,1.145,0V4.342H7.118a.573.573,0,1,0,0-1.145H4.494V.573a.573.573,0,1,0-1.145,0V3.2H.573a.573.573,0,1,0,0,1.145Zm0,0" transform="translate(12.946 12.089)"></path></g></g><g transform="translate(1388.971 221.091)"><path class="c" d="M42.122,15.5l-4.231-3.08V5.243a.617.617,0,0,0-.617-.617H32.931a.617.617,0,0,0-.617.617V8.364L21.55.528a.617.617,0,0,0-.726,0L.253,15.5a.617.617,0,0,0,.363,1.116H6.024V40.3a.617.617,0,0,0,.617.617l23.5,0a.617.617,0,1,0,0-1.234l-22.885,0V16a.617.617,0,0,0-.617-.617H2.512l18.675-13.6,18.749,13.65-4.222.127a.616.616,0,0,0-.6.617v5.652a.617.617,0,1,0,1.234,0V16.783l5.426-.163a.617.617,0,0,0,.345-1.116ZM33.548,5.86h3.109v5.666L33.548,9.263Zm0,0" transform="translate(0.001 -0.41)"></path><g transform="translate(27.068 21.15)"><path class="b" d="M82.537,151.187a.428.428,0,0,1-.326-.15l-2.267-2.654a.429.429,0,1,1,.653-.557l1.994,2.335,4.953-4.03a.429.429,0,0,1,.542.666l-5.279,4.294A.427.427,0,0,1,82.537,151.187Zm0,0" transform="translate(-74.951 -137.083)"></path><path class="d" d="M7.5,22.389l1.163.507a.429.429,0,0,0,.341,0l1.311-.566a12.4,12.4,0,0,0,7.6-11.428V5.022a.429.429,0,0,0-.227-.379L9.066.051a.428.428,0,0,0-.408,0L.278,4.646a.429.429,0,0,0-.223.376v6A12.421,12.421,0,0,0,7.5,22.389ZM.914,5.276,8.867.917l8.187,4.362V10.9A11.54,11.54,0,0,1,9.98,21.541h0l-1.141.493L7.844,21.6A11.562,11.562,0,0,1,.913,11.021Zm0,0" transform="translate(-0.056 0)"></path></g></g><g transform="matrix(0.891, 0.454, -0.454, 0.891, 1863.407, 323)"><path class="b" d="M47.518,23.918H17.987a3.791,3.791,0,0,0-2-7.047,3.87,3.87,0,0,0-3.229,1.73V.744a.744.744,0,1,0-1.488,0V18.6A3.83,3.83,0,0,0,9.982,17.39a3.886,3.886,0,0,0-1.942-.519,3.791,3.791,0,0,0-2,7.047H.744a.744.744,0,1,0,0,1.488h9.472L6.7,28.92a.744.744,0,1,0,1.052,1.052l3.513-3.513v9.578a.744.744,0,0,0,1.488,0V26.459l4.736,4.736a.744.744,0,1,0,1.052-1.052l-4.736-4.736H47.518a.744.744,0,0,0,0-1.488ZM7.595,22.943a2.309,2.309,0,0,1,.445-4.584,2.4,2.4,0,0,1,1.2.319,2.316,2.316,0,0,1,1.123,1.562l.649,3.343Zm8.835,0-3.415.641.648-3.343a2.368,2.368,0,0,1,4.685.431,2.329,2.329,0,0,1-1.918,2.271Zm0,0" transform="translate(0 0)"></path><path class="c" d="M43.266,0H5A5,5,0,0,0,0,5V31.732a5,5,0,0,0,5,5h38.27a5,5,0,0,0,5-5V5A5,5,0,0,0,43.266,0Zm3.508,31.732a3.512,3.512,0,0,1-3.508,3.508H5a3.512,3.512,0,0,1-3.508-3.508V5A3.512,3.512,0,0,1,5,1.488h38.27A3.512,3.512,0,0,1,46.774,5Zm0,0" transform="translate(0 0.053)"></path></g><rect class="a" width="81" height="81" rx="18" transform="matrix(-0.017, 1, -1, -0.017, 2445.454, 1300.476)"></rect><rect class="a" width="81" height="81" rx="18" transform="translate(2438.525 1125.813) rotate(84)"></rect><rect class="a" width="81" height="81" rx="18" transform="translate(2426.31 1034.702) rotate(169)"></rect><rect class="a" width="81" height="81" rx="18" transform="matrix(-0.602, 0.799, -0.799, -0.602, 2316.761, 1777.91)"></rect><rect class="a" width="81" height="81" rx="18" transform="translate(2395.82 1618.781) rotate(110)"></rect><rect class="a" width="81" height="81" rx="18" transform="matrix(-0.191, 0.982, -0.982, -0.191, 2433.289, 1458.673)"></rect><rect class="a" width="81" height="81" rx="18" transform="matrix(-0.914, 0.407, -0.407, -0.914, 2377.441, 864.81)"></rect><rect class="a" width="81" height="81" rx="18" transform="translate(2296.736 708.055) rotate(148)"></rect><rect class="a" width="81" height="81" rx="18" transform="translate(2190.543 555.411) rotate(131)"></rect><g transform="matrix(0.191, 0.982, -0.982, 0.191, 2390.008, 976.734)"><g transform="translate(0 7.53)"><path class="b" d="M.732,1.464H44.665a.732.732,0,1,0,0-1.464H.732a.732.732,0,1,0,0,1.464Zm0,0" transform="translate(0 0)"></path><path class="b" d="M9.181,0a4.769,4.769,0,0,0-2.2.534,4.787,4.787,0,1,0,0,8.507A4.787,4.787,0,1,0,9.181,0ZM1.465,4.788A3.323,3.323,0,1,1,4.788,8.111,3.322,3.322,0,0,1,1.465,4.788ZM9.181,8.111A3.323,3.323,0,0,1,8.337,8a4.787,4.787,0,0,0,0-6.425,3.322,3.322,0,1,1,.844,6.536Zm0,0" transform="translate(27.096 8.146)"></path></g><path class="c" d="M40.481,0H4.916A4.922,4.922,0,0,0,0,4.916v20.92a4.922,4.922,0,0,0,4.916,4.916H40.481A4.922,4.922,0,0,0,45.4,25.836V4.916A4.922,4.922,0,0,0,40.481,0Zm3.452,25.836a3.456,3.456,0,0,1-3.452,3.452H4.916a3.456,3.456,0,0,1-3.452-3.452V4.916A3.456,3.456,0,0,1,4.916,1.464H40.481a3.456,3.456,0,0,1,3.452,3.452Zm0,0" transform="translate(0.087 0)"></path></g><g transform="matrix(-0.017, 1, -1, -0.017, 2423.514, 1315.004)"><path class="b" d="M7.408,12.741a.841.841,0,0,1-.6-.248L.248,5.932a.846.846,0,0,1,1.2-1.2l5.976,5.977L18.39.234a.846.846,0,0,1,1.168,1.223L7.992,12.506A.848.848,0,0,1,7.408,12.741Zm0,0" transform="translate(11.481 9.252)"></path><path class="b" d="M10.6,35.447a1.336,1.336,0,0,1-1.133-.622l-.01-.017-3.8-6.3H.846a.846.846,0,0,1,0-1.692H6.129a.847.847,0,0,1,.724.408l3.747,6.2,3.747-6.2a.845.845,0,0,1,.724-.408H25.23a2.783,2.783,0,0,0,2.78-2.78V4.472a2.783,2.783,0,0,0-2.78-2.78H19.187a.846.846,0,0,1,0-1.692H25.23A4.477,4.477,0,0,1,29.7,4.472V24.04a4.477,4.477,0,0,1-4.472,4.472H15.547l-3.8,6.3-.01.017a1.337,1.337,0,0,1-1.133.621Zm0,0" transform="translate(22.752 8.051)"></path><path class="c" d="M4.956,32.088H15.7l4.345,7.19.01.017a1.409,1.409,0,0,0,2.377,0l.01-.017,4.344-7.19H37.828a4.961,4.961,0,0,0,4.955-4.955V4.955A4.961,4.961,0,0,0,37.828,0H4.955A4.961,4.961,0,0,0,0,4.955V27.133a4.961,4.961,0,0,0,4.956,4.955ZM1.692,4.955A3.266,3.266,0,0,1,4.956,1.692H37.828a3.267,3.267,0,0,1,3.263,3.263V27.133A3.267,3.267,0,0,1,37.828,30.4H26.314a.846.846,0,0,0-.724.409l-4.342,7.186L16.906,30.8a.846.846,0,0,0-.724-.408H4.956a3.267,3.267,0,0,1-3.263-3.263Zm0,0" transform="translate(0 0)"></path></g><g transform="translate(2295.319 1782.042) rotate(124)"><path class="b" d="M13.3,14.723a.669.669,0,0,1-.669-.669V6.983a5.645,5.645,0,1,0-11.291,0v7.072a.669.669,0,1,1-1.337,0V6.983a6.983,6.983,0,1,1,13.965,0v7.072A.668.668,0,0,1,13.3,14.723Zm0,0" transform="translate(8.492 0)"></path><path class="b" d="M5.965,9.7A5.971,5.971,0,0,1,0,3.734V.669a.669.669,0,0,1,1.337,0V3.734a4.627,4.627,0,0,0,9.254,0V.669a.669.669,0,1,1,1.337,0V3.734A5.971,5.971,0,0,1,5.965,9.7Zm0,0" transform="translate(23.838 20.946)"></path><path class="c" d="M39.89,9.832V9.82A2.26,2.26,0,0,0,37.645,7.9H28.171l-.8-5.711V2.179A2.567,2.567,0,0,0,24.825,0H6.124A2.567,2.567,0,0,0,3.575,2.179v.012L.006,27.786A.591.591,0,0,0,0,27.878a4.5,4.5,0,0,0,4.49,4.49H16.841a3.88,3.88,0,0,0,3.748,2.9H39.016a3.878,3.878,0,0,0,3.874-3.873.639.639,0,0,0-.007-.093ZM16.76,31.03H4.49a3.156,3.156,0,0,1-3.152-3.108L4.9,2.382A1.235,1.235,0,0,1,6.124,1.337h18.7a1.235,1.235,0,0,1,1.226,1.044l.769,5.52H21.96A2.26,2.26,0,0,0,19.717,9.82v.012Zm22.256,2.9H20.59a2.539,2.539,0,0,1-2.536-2.492l2.984-21.412a.929.929,0,0,1,.922-.784H37.645a.929.929,0,0,1,.922.784l2.985,21.412a2.539,2.539,0,0,1-2.536,2.492Zm0,0" transform="translate(0 9.218)"></path></g><g transform="translate(2130.671 526.933) rotate(42)"><path class="b" d="M31.966,1.841a.856.856,0,0,0-.814-.064L16.221,8.412,1.272.108A.856.856,0,0,0,.44,1.6L15.322,9.872v32.09L1.272,34.156a.856.856,0,0,0-.832,1.5l15.322,8.512c.011.006.023.011.034.016a.5.5,0,0,0,.045.021c.021.009.043.017.064.024s.029.011.044.014.048.011.072.016l.042.008a.838.838,0,0,0,.092.006l.022,0a.945.945,0,0,0,.1-.007l.023,0a.768.768,0,0,0,.079-.016l.03-.008q.037-.011.073-.024l.028-.011.01,0,15.322-6.81a.857.857,0,0,0,.508-.783V2.559a.856.856,0,0,0-.39-.718Zm-1.322,34.21L17.034,42.1V9.925l13.61-6.049Zm0,0" transform="translate(15.321 0)"></path><path class="c" d="M17.034,34.905V.857a.856.856,0,0,0-1.2-.783L.508,6.884A.856.856,0,0,0,0,7.667V41.715a.856.856,0,0,0,1.2.783l15.322-6.81a.857.857,0,0,0,.509-.783Zm-1.712-.557L1.712,40.4V8.223l13.61-6.049Zm0,0" transform="translate(0 0)"></path></g><g transform="translate(2247.909 669.445) rotate(56)"><path class="b" d="M5.083,9.715a.807.807,0,0,1-.615-.284l-4.273-5A.809.809,0,1,1,1.425,3.376l3.76,4.4,9.339-7.6a.809.809,0,1,1,1.021,1.255l-9.953,8.1A.805.805,0,0,1,5.083,9.715Zm0,0" transform="translate(9.221 16.877)"></path><path class="c" d="M14.037,42.213l2.193.956a.808.808,0,0,0,.644,0L19.345,42.1A23.374,23.374,0,0,0,33.668,20.555V9.468a.809.809,0,0,0-.428-.714L16.99.1a.807.807,0,0,0-.769,0L.42,8.759a.809.809,0,0,0-.42.71V20.779A23.42,23.42,0,0,0,14.037,42.213ZM1.618,9.947l15-8.219L32.05,9.953v10.6A21.759,21.759,0,0,1,18.712,40.614l-.006,0-2.152.929-1.87-.816A21.8,21.8,0,0,1,1.618,20.779Zm0,0"></path></g><g transform="matrix(-0.191, 0.982, -0.982, -0.191, 2406.686, 1471.622)"><path class="b" d="M23.417,15.41A.79.79,0,0,1,23,15.293L.387,1.472A.792.792,0,1,1,1.212.121l22.2,13.569L45.621.121a.792.792,0,1,1,.825,1.351L23.829,15.293a.79.79,0,0,1-.413.116Zm0,0" transform="translate(0 3.903)"></path><path class="c" d="M42.117,0H4.7A4.705,4.705,0,0,0,0,4.7V28.434a4.705,4.705,0,0,0,4.7,4.7H42.117a4.706,4.706,0,0,0,4.7-4.7V4.7a4.706,4.706,0,0,0-4.7-4.7Zm3.117,28.434a3.121,3.121,0,0,1-3.117,3.116H4.7a3.121,3.121,0,0,1-3.117-3.116V4.7A3.12,3.12,0,0,1,4.7,1.583H42.117A3.12,3.12,0,0,1,45.234,4.7Zm0,0" transform="translate(0.008 0)"></path></g><g transform="translate(2335.938 820.742) rotate(66)"><path class="b" d="M10.207,20.934H10.1a10.018,10.018,0,0,1-7.192-3.149,10.655,10.655,0,0,1,.159-14.79A10.022,10.022,0,0,1,10.321,0a10.353,10.353,0,0,1,10.1,10.576,10.534,10.534,0,0,1-3.064,7.363,10.02,10.02,0,0,1-7.148,3Zm.005-19.7A8.8,8.8,0,0,0,3.939,3.864a9.422,9.422,0,0,0-.14,13.07,8.8,8.8,0,0,0,12.682.136,9.308,9.308,0,0,0,2.7-6.507,9.118,9.118,0,0,0-8.877-9.33h-.1Zm0,0" transform="translate(6.582 5.467)"></path><g transform="translate(0 0)"><path class="c" d="M4.859,28.967,16.279,41.13a.7.7,0,0,0,1.026,0L28.725,28.967a17.82,17.82,0,0,0,3.826-6.072,16.555,16.555,0,0,0,1-6.814A17.558,17.558,0,0,0,28.48,4.852a16.5,16.5,0,0,0-23.376,0A17.56,17.56,0,0,0,.034,16.081a16.555,16.555,0,0,0,1,6.814,17.828,17.828,0,0,0,3.826,6.072ZM1.438,16.175A16.152,16.152,0,0,1,6.1,5.846a15.1,15.1,0,0,1,21.382,0,16.15,16.15,0,0,1,4.663,10.329,15.151,15.151,0,0,1-.918,6.237A16.42,16.42,0,0,1,27.7,28L16.792,39.62,5.886,28a16.43,16.43,0,0,1-3.53-5.591,15.159,15.159,0,0,1-.918-6.238Zm0,0" transform="translate(0 0)"></path><path class="c" d="M.573,4.342H3.349V7.118a.573.573,0,1,0,1.145,0V4.342H7.118a.573.573,0,1,0,0-1.145H4.494V.573a.573.573,0,1,0-1.145,0V3.2H.573a.573.573,0,1,0,0,1.145Zm0,0" transform="translate(12.946 12.089)"></path></g></g><g transform="translate(2421.373 1145.27) rotate(84)"><path class="c" d="M42.122,15.5l-4.231-3.08V5.243a.617.617,0,0,0-.617-.617H32.931a.617.617,0,0,0-.617.617V8.364L21.55.528a.617.617,0,0,0-.726,0L.253,15.5a.617.617,0,0,0,.363,1.116H6.024V40.3a.617.617,0,0,0,.617.617l23.5,0a.617.617,0,1,0,0-1.234l-22.885,0V16a.617.617,0,0,0-.617-.617H2.512l18.675-13.6,18.749,13.65-4.222.127a.616.616,0,0,0-.6.617v5.652a.617.617,0,1,0,1.234,0V16.783l5.426-.163a.617.617,0,0,0,.345-1.116ZM33.548,5.86h3.109v5.666L33.548,9.263Zm0,0" transform="translate(0.001 -0.41)"></path><g transform="translate(27.068 21.15)"><path class="b" d="M82.537,151.187a.428.428,0,0,1-.326-.15l-2.267-2.654a.429.429,0,1,1,.653-.557l1.994,2.335,4.953-4.03a.429.429,0,0,1,.542.666l-5.279,4.294A.427.427,0,0,1,82.537,151.187Zm0,0" transform="translate(-74.951 -137.083)"></path><path class="d" d="M7.5,22.389l1.163.507a.429.429,0,0,0,.341,0l1.311-.566a12.4,12.4,0,0,0,7.6-11.428V5.022a.429.429,0,0,0-.227-.379L9.066.051a.428.428,0,0,0-.408,0L.278,4.646a.429.429,0,0,0-.223.376v6A12.421,12.421,0,0,0,7.5,22.389ZM.914,5.276,8.867.917l8.187,4.362V10.9A11.54,11.54,0,0,1,9.98,21.541h0l-1.141.493L7.844,21.6A11.562,11.562,0,0,1,.913,11.021Zm0,0" transform="translate(-0.056 0)"></path></g></g><g transform="translate(2369.615 1627.76) rotate(111)"><path class="b" d="M47.518,23.918H17.987a3.791,3.791,0,0,0-2-7.047,3.87,3.87,0,0,0-3.229,1.73V.744a.744.744,0,1,0-1.488,0V18.6A3.83,3.83,0,0,0,9.982,17.39a3.886,3.886,0,0,0-1.942-.519,3.791,3.791,0,0,0-2,7.047H.744a.744.744,0,1,0,0,1.488h9.472L6.7,28.92a.744.744,0,1,0,1.052,1.052l3.513-3.513v9.578a.744.744,0,0,0,1.488,0V26.459l4.736,4.736a.744.744,0,1,0,1.052-1.052l-4.736-4.736H47.518a.744.744,0,0,0,0-1.488ZM7.595,22.943a2.309,2.309,0,0,1,.445-4.584,2.4,2.4,0,0,1,1.2.319,2.316,2.316,0,0,1,1.123,1.562l.649,3.343Zm8.835,0-3.415.641.648-3.343a2.368,2.368,0,0,1,4.685.431,2.329,2.329,0,0,1-1.918,2.271Zm0,0" transform="translate(0 0)"></path><path class="c" d="M43.266,0H5A5,5,0,0,0,0,5V31.732a5,5,0,0,0,5,5h38.27a5,5,0,0,0,5-5V5A5,5,0,0,0,43.266,0Zm3.508,31.732a3.512,3.512,0,0,1-3.508,3.508H5a3.512,3.512,0,0,1-3.508-3.508V5A3.512,3.512,0,0,1,5,1.488h38.27A3.512,3.512,0,0,1,46.774,5Zm0,0" transform="translate(0 0.053)"></path></g></g></svg>
				